# xmcd
#
# Track frame offsets: 
#        150
#        16772
#        43855
#        68020
#        92440
#        115692
#        138950
#        158657
#        178382
#        198407
#
# Disc length: 2910 seconds
#
# Revision: 0
# Processed by: cddbd v1.5.2PL0 Copyright (c) Steve Scherf et al.
# Submitted via: ExactAudioCopy v1.0b1
#
DISCID=7b0b5c0a
DTITLE=Ai Van - Co Tam Ngay Nay
DYEAR=1900
DGENRE=Vietnamese
TTITLE0=Ai Van - Co Tam Ngay Nay (Ngoc Chau)
TTITLE1=Ai Van - Chi Toi (Tran Tien)
TTITLE2=Ai Van - Buc Hoa Dong Que (Van Phung)
TTITLE3=Ai Van - Ao Tu Than (Huu Xuan, Thai Thang Long)
TTITLE4=Ai Van - Em Di Chua Huong (Trung Duc, Nguyen Nhuoc Phap)
TTITLE5=Ai Xuan - Ca Dao Em Va Toi (An Thuyen)
TTITLE6=Ai Van - Huong Dong Gio Noi (Song Ngoc, Nguyen Binh)
TTITLE7=Ai Van - Hoa Co Mua Xuan (Bao Chan)
TTITLE8=Ai Xuan - Tieng Hat Chim Da Da (Vo Dong Dien)
TTITLE9=Ai Van - Tinh Nang Truc Xinh (Hoang Thong)
EXTD=
EXTT0=
EXTT1=
EXTT2=
EXTT3=
EXTT4=
EXTT5=
EXTT6=
EXTT7=
EXTT8=
EXTT9=
PLAYORDER=
